<svg xmlns="http://www.w3.org/2000/svg">
<symbol id="facebook" viewBox="0 0 18.948 18.949"><g transform="translate(0.499 0.499)"><path class="svg-facebook-a" d="M13013.548,11906.95h-8.478a1.1,1.1,0,0,1-1.1-1.1V11890.1a1.1,1.1,0,0,1,1.1-1.1h15.749a1.1,1.1,0,0,1,1.1,1.1v15.752a1.1,1.1,0,0,1-1.1,1.1h-4.487v-6.876h2.3l.426-2.765h-2.723v-2a.932.932,0,0,1,.347-.735s0,0,.006,0a1.075,1.075,0,0,1,.645-.222c.32.009.64.016.96.022l.41.01.414.01v-2.666h-2.4a3.275,3.275,0,0,0-1.268.241,3.057,3.057,0,0,0-1.2.876,3.156,3.156,0,0,0-.706,2.154v2.311h-2.333v2.765h2.337v6.876Z" transform="translate(-13003.971 -11889)"/></g></symbol>
<symbol id="instagram" viewBox="0 0 17.606 17.606"><circle cx="1.037" cy="1.037" r="1.037" transform="translate(12.481 3.071)"/><path d="M743.8-629.225h-7.61a5,5,0,0,0-5,5v7.61a5,5,0,0,0,5,5h7.61a5,5,0,0,0,5-5v-7.61a5,5,0,0,0-5-5Zm3.409,12.608a3.415,3.415,0,0,1-3.409,3.409h-7.61a3.415,3.415,0,0,1-3.409-3.409v-7.61a3.415,3.415,0,0,1,3.409-3.409h7.61a3.415,3.415,0,0,1,3.409,3.409Z" transform="translate(-731.192 629.225)"/><path d="M835.02-529.98a4.586,4.586,0,0,0-4.582,4.583,4.586,4.586,0,0,0,4.582,4.583A4.586,4.586,0,0,0,839.6-525.4,4.586,4.586,0,0,0,835.02-529.98Zm0,7.576a3,3,0,0,1-2.993-2.993,3,3,0,0,1,2.993-2.993,3,3,0,0,1,2.993,2.993A3,3,0,0,1,835.02-522.4Z" transform="translate(-826.217 534.201)"/></symbol>
<symbol id="linkedin" viewBox="0 0 84.003 83.999"><g transform="translate(0.5 0.5)"><g transform="translate(0.001 -0.003)"><path d="M1507,15923.5h-73a5.005,5.005,0,0,1-5-5v-73a5,5,0,0,1,5-5h73a5.007,5.007,0,0,1,5,5v73A5.007,5.007,0,0,1,1507,15923.5Zm-28.717-44.1c3.345,0,5.187,1.842,5.187,5.188v20.749h10.374v-18.155c0-4.7-.238-9.529-1.964-12.969a8.657,8.657,0,0,0-3.527-3.809,12.335,12.335,0,0,0-6.178-1.378c-7.257,0-8.492,2.678-9.08,5.188v-5.187H1462.72v36.311h10.374v-20.749a4.654,4.654,0,0,1,5.187-5.187Zm-31.127-10.374v36.311h10.378v-36.311Zm5.191-12.968a5.187,5.187,0,1,0,5.187,5.188A5.2,5.2,0,0,0,1452.345,15856.064Z" transform="translate(-1429 -15840.5)"/></g></g></symbol>
<symbol id="twitter" viewBox="0 0 20.672 16.869"><path d="M32.5-617.843a8.719,8.719,0,0,1-1.242.238,3.877,3.877,0,0,0,1.238-1.08,3.813,3.813,0,0,0,.612-1.255,9,9,0,0,1-1.293.617,9.315,9.315,0,0,1-1.4.421,4.211,4.211,0,0,0-1.488-1.029,4.084,4.084,0,0,0-1.68-.3,4.372,4.372,0,0,0-3.253,1.586,4.381,4.381,0,0,0-.8,3.632,11.694,11.694,0,0,1-4.916-1.289,11.808,11.808,0,0,1-3.887-3.172,4.162,4.162,0,0,0-.536,2.939,4.3,4.3,0,0,0,1.829,2.73,4.439,4.439,0,0,1-.923-.132,4,4,0,0,1-.982-.4,4.341,4.341,0,0,0,.693,2.4,4.423,4.423,0,0,0,2.683,1.837,4.206,4.206,0,0,1-.923.136,4.428,4.428,0,0,1-.957-.072,4.178,4.178,0,0,0,1.391,2.063,4.211,4.211,0,0,0,2.539.893,8.325,8.325,0,0,1-2.628,1.416A8.413,8.413,0,0,1,13-605.3a12.02,12.02,0,0,0,6.494,1.939,11.991,11.991,0,0,0,6.545-1.939,12.263,12.263,0,0,0,4.125-4.529,12.274,12.274,0,0,0,1.4-6.226,9.459,9.459,0,0,0,1.238-1.106,9.218,9.218,0,0,0,.872-1.093,9.1,9.1,0,0,1-1.174.412Z" transform="translate(-13 620.231)"/></symbol>
<symbol id="youtube" viewBox="0 0 117.177 83"><path d="M1304.322,15923.829c-12.352,0-25.13-.237-37.979-.7a20.066,20.066,0,0,1-19.342-20.046v-41.83a20.064,20.064,0,0,1,19.318-20.046c13.182-.467,26.228-.7,38.777-.7h.022l1.753,0c12.434,0,25.271.237,38.153.705a20.067,20.067,0,0,1,19.342,20.046v41.83a20.045,20.045,0,0,1-19.318,20.046c-13.141.467-26.259.7-38.989.7Zm-10.448-59.268h0v35.488l30.54-17.744-30.54-17.744Z" transform="translate(-1247.094 -15840.83)"/></symbol>
</svg>