<svg xmlns="http://www.w3.org/2000/svg" width="18.948" height="18.949" viewBox="0 0 18.948 18.949"><defs><style>.svg-facebook-a{stroke:rgba(0,0,0,0);stroke-miterlimit:10;}</style></defs><g transform="translate(0.499 0.499)"><path class="svg-facebook-a" d="M13013.548,11906.95h-8.478a1.1,1.1,0,0,1-1.1-1.1V11890.1a1.1,1.1,0,0,1,1.1-1.1h15.749a1.1,1.1,0,0,1,1.1,1.1v15.752a1.1,1.1,0,0,1-1.1,1.1h-4.487v-6.876h2.3l.426-2.765h-2.723v-2a.932.932,0,0,1,.347-.735s0,0,.006,0a1.075,1.075,0,0,1,.645-.222c.32.009.64.016.96.022l.41.01.414.01v-2.666h-2.4a3.275,3.275,0,0,0-1.268.241,3.057,3.057,0,0,0-1.2.876,3.156,3.156,0,0,0-.706,2.154v2.311h-2.333v2.765h2.337v6.876Z" transform="translate(-13003.971 -11889)"/></g></svg>
