<svg xmlns="http://www.w3.org/2000/svg" width="17.606" height="17.606" viewBox="0 0 17.606 17.606"><circle cx="1.037" cy="1.037" r="1.037" transform="translate(12.481 3.071)"/><path d="M743.8-629.225h-7.61a5,5,0,0,0-5,5v7.61a5,5,0,0,0,5,5h7.61a5,5,0,0,0,5-5v-7.61a5,5,0,0,0-5-5Zm3.409,12.608a3.415,3.415,0,0,1-3.409,3.409h-7.61a3.415,3.415,0,0,1-3.409-3.409v-7.61a3.415,3.415,0,0,1,3.409-3.409h7.61a3.415,3.415,0,0,1,3.409,3.409Z" transform="translate(-731.192 629.225)"/><path d="M835.02-529.98a4.586,4.586,0,0,0-4.582,4.583,4.586,4.586,0,0,0,4.582,4.583A4.586,4.586,0,0,0,839.6-525.4,4.586,4.586,0,0,0,835.02-529.98Zm0,7.576a3,3,0,0,1-2.993-2.993,3,3,0,0,1,2.993-2.993,3,3,0,0,1,2.993,2.993A3,3,0,0,1,835.02-522.4Z" transform="translate(-826.217 534.201)"/></svg>
