<svg xmlns="http://www.w3.org/2000/svg" width="84.003" height="83.999" viewBox="0 0 84.003 83.999"><g transform="translate(0.5 0.5)"><g transform="translate(0.001 -0.003)"><path d="M1507,15923.5h-73a5.005,5.005,0,0,1-5-5v-73a5,5,0,0,1,5-5h73a5.007,5.007,0,0,1,5,5v73A5.007,5.007,0,0,1,1507,15923.5Zm-28.717-44.1c3.345,0,5.187,1.842,5.187,5.188v20.749h10.374v-18.155c0-4.7-.238-9.529-1.964-12.969a8.657,8.657,0,0,0-3.527-3.809,12.335,12.335,0,0,0-6.178-1.378c-7.257,0-8.492,2.678-9.08,5.188v-5.187H1462.72v36.311h10.374v-20.749a4.654,4.654,0,0,1,5.187-5.187Zm-31.127-10.374v36.311h10.378v-36.311Zm5.191-12.968a5.187,5.187,0,1,0,5.187,5.188A5.2,5.2,0,0,0,1452.345,15856.064Z" transform="translate(-1429 -15840.5)"/></g></g></svg>
