<svg xmlns="http://www.w3.org/2000/svg" width="20.672" height="16.869" viewBox="0 0 20.672 16.869"><path d="M32.5-617.843a8.719,8.719,0,0,1-1.242.238,3.877,3.877,0,0,0,1.238-1.08,3.813,3.813,0,0,0,.612-1.255,9,9,0,0,1-1.293.617,9.315,9.315,0,0,1-1.4.421,4.211,4.211,0,0,0-1.488-1.029,4.084,4.084,0,0,0-1.68-.3,4.372,4.372,0,0,0-3.253,1.586,4.381,4.381,0,0,0-.8,3.632,11.694,11.694,0,0,1-4.916-1.289,11.808,11.808,0,0,1-3.887-3.172,4.162,4.162,0,0,0-.536,2.939,4.3,4.3,0,0,0,1.829,2.73,4.439,4.439,0,0,1-.923-.132,4,4,0,0,1-.982-.4,4.341,4.341,0,0,0,.693,2.4,4.423,4.423,0,0,0,2.683,1.837,4.206,4.206,0,0,1-.923.136,4.428,4.428,0,0,1-.957-.072,4.178,4.178,0,0,0,1.391,2.063,4.211,4.211,0,0,0,2.539.893,8.325,8.325,0,0,1-2.628,1.416A8.413,8.413,0,0,1,13-605.3a12.02,12.02,0,0,0,6.494,1.939,11.991,11.991,0,0,0,6.545-1.939,12.263,12.263,0,0,0,4.125-4.529,12.274,12.274,0,0,0,1.4-6.226,9.459,9.459,0,0,0,1.238-1.106,9.218,9.218,0,0,0,.872-1.093,9.1,9.1,0,0,1-1.174.412Z" transform="translate(-13 620.231)"/></svg>
