<svg xmlns="http://www.w3.org/2000/svg" xmlns:xlink="http://www.w3.org/1999/xlink" width="117.177" height="83" viewBox="0 0 117.177 83"><path d="M1304.322,15923.829c-12.352,0-25.13-.237-37.979-.7a20.066,20.066,0,0,1-19.342-20.046v-41.83a20.064,20.064,0,0,1,19.318-20.046c13.182-.467,26.228-.7,38.777-.7h.022l1.753,0c12.434,0,25.271.237,38.153.705a20.067,20.067,0,0,1,19.342,20.046v41.83a20.045,20.045,0,0,1-19.318,20.046c-13.141.467-26.259.7-38.989.7Zm-10.448-59.268h0v35.488l30.54-17.744-30.54-17.744Z" transform="translate(-1247.094 -15840.83)"/></svg>
